<?xml version="1.0" encoding="UTF-8" standalone="no"?>
<!DOCTYPE svg PUBLIC "-//W3C//DTD SVG 1.1//EN"
"http://www.w3.org/Graphics/SVG/1.1/DTD/svg11.dtd">

<svg x="0" y="0" width="909" height="1286" version="1.1" xmlns="http://www.w3.org/2000/svg" xmlns:xlink="http://www.w3.org/1999/xlink" style="display: block;margin-left: auto;margin-right: auto;">
  <path fill="#ED1B24" d="M264.9,725.5c5.2,-22.5,-11.2,-23.3,-13,-38.8c-17.4,-1.8,-28.8,2.3,-33.6,13c2.6,12,13.7,15.6,15.5,28.4c13.3,0.1,22.6,5.6,31.1,-2.6M539.2,272.7c1.3,-18.5,20,-19.7,18.1,-41.4c-15.5,-7.4,-47.5,-11.1,-57,-2.6c-2.9,21.9,13.8,24.2,13,44c10.3,2.5,15.5,2.5,25.9,0m54.3,370c6.1,-26.6,21.8,-43.7,23.3,-75c-7.5,-13.2,-21.4,-20,-28.5,-33.7c1.9,-5.8,11,-4.5,15.6,-7.7c4.2,-26.6,-14.3,-30.6,-13,-54.4C560.9,461.4,556.3,425.5,513.3,428c-6.2,-4.2,-10.4,-10.3,-15.5,-15.6c-41.6,1.7,-81.1,-22.2,-106.1,10.4c-8.5,-0.2,-9.9,-7.4,-20.7,-5.2c-13.5,7.2,-16.1,25.4,-41.5,20.7c-10.3,15,-27.9,43.2,-51.7,28.5c-2.3,4.5,-5.8,8,-10.4,10.3c0.2,11.9,8.8,15.4,10.4,25.9c-2.8,9.3,-16.4,18.5,-12.9,25.9c10.8,10.4,35.6,9.7,41.4,18.1c0.3,6.4,0.4,12.5,-5.2,12.9c-20,-3.6,-23.9,-14,-44,-12.9c-0.6,9.7,-9.8,10.9,-10.4,20.7c16.6,16.2,30.2,35.4,44,54.3l0,20.7c19.6,29.7,56,42.4,85.4,62.1c43.2,-4.8,81.3,1,124.2,-2.5c6,0.7,2.9,-7.5,7.8,-7.8c40.2,-5.6,61.4,-30,85.4,-51.8M766.9,518.5l0,85.4C741.3,638.7,735,692.8,707.4,725.5C669.5,761,629,793.8,572.8,810.9c11.3,10.8,8,38.3,0,49.2c3.8,10.8,20.2,9.1,25.9,18.1c-1.2,13.5,-7.4,22,-18.1,25.9c1.1,6.6,11.2,4.3,12.9,10.3c-7.2,15.3,-0.8,44.1,-15.5,51.8C565.8,936.1,533,926.7,510.7,906.7c-2.6,-21.7,21.5,-2,25.9,-18.1c-7.9,-7.7,-23.3,-7.8,-33.7,-13c1.8,-25,-29.6,-17,-33.6,-36.2c-24.4,0.9,-55.1,-20.5,-67.3,5.2c3.7,9.2,22.3,3.6,18.1,20.7c-9.3,6.2,-37,-5.9,-31,15.5C353.3,863,323.2,868.7,283,860.1c-4.3,-7.8,-10.3,-13.9,-7.8,-28.5c6.1,-5.1,16.5,-5.9,28.5,-5.1c2.8,-0.7,1.7,-5.2,5.1,-5.2c2.1,-20.2,-16,-20.2,-23.2,-31.1c5.5,-2.2,6,-9.5,5.1,-18.1c-14,-22.4,-41.3,-6.9,-67.2,-12.9c-37.3,-8.7,-31.1,-52.1,-57,-82.8c13.4,-3.9,33.1,-15.2,20.7,-36.3c0.6,-4.5,4.5,-5.9,10.4,-5.1c1.2,-26.3,-7.5,-42.6,-15.5,-59.6c-28.6,6.9,-27.1,43.8,-44,62.2c1.1,8.9,7.6,27.2,-5.2,28.4c-15.4,-23.3,-3.2,-65.2,-2.6,-95.7c32.4,-6.3,8.2,-61.1,2.6,-77.7c21.5,-12.7,9.1,-62,41.4,-59.5c12.3,1,20.3,22.5,36.2,28.5c16.2,6.1,28.8,-1.1,44,7.8c7,1.8,-1.9,-12.3,5.2,-10.4C243.6,436.3,209.9,431.1,189.8,412.4c0.8,-13,20.8,-6.8,20.7,-20.7c-12.4,-11.2,-37.2,-15.4,-44,-38.8c20.8,6.8,41.7,32.3,59.5,10.4c2.9,-10.6,-8.9,-6.7,-10.3,-13C218.3,340,228.2,337,226,321.8c16.5,-3.3,20.9,-18.7,28.5,-31c18.1,-9.5,32,-23.3,44,-38.8c30,-15.7,64.4,-27,98.3,-38.8c4.8,-8.2,15.3,-10.6,15.6,-23.3C435.2,192,425,161.1,448.6,164c2.5,13.2,-4.1,27,0,33.6c30.5,-24.7,50.9,-59.5,64.7,-100.9c10.3,17.3,29.1,26.1,38.8,44c8.7,-22.2,-4.7,-50,0,-82.8c3.7,0.2,7.3,0.4,7.8,-2.6c6.5,32.2,9,68.6,20.7,95.8c2.2,8.3,-8.6,3.5,-7.8,10.3c6.9,21.6,5,51.9,20.7,64.7c46.5,-6,28.7,52.4,64.7,56.9c2.1,23.8,24,27.8,20.7,57c9.7,13.6,24.4,22.2,38.8,31c0.9,32,15.3,50.3,28.5,69.9c2.8,30,5.4,60.1,20.7,77.6Z" />
</svg>
